<svg width="362" height="314" viewBox="0 0 362 314" fill="none" xmlns="http://www.w3.org/2000/svg">
<path d="M5.7758 166.717C2.20183 160.528 2.20183 152.902 5.7758 146.713L84.7262 9.99828C88.2991 3.81122 94.9011 0 102.046 0H259.954C267.099 0 273.701 3.81123 277.274 9.99829L356.224 146.713C359.798 152.902 359.798 160.528 356.224 166.717L277.274 303.432C273.701 309.619 267.099 313.43 259.954 313.43H102.046C94.9011 313.43 88.2991 309.619 84.7262 303.431L5.7758 166.717Z" fill="url(#paint0_linear_135_163)"/>
<path d="M75 278.864L106.659 246.509C127.393 261.686 148.531 269.274 170.072 269.274C183.312 269.274 194.479 265.799 203.572 258.849C212.665 251.898 217.211 243.313 217.211 233.092C217.211 221.753 208.18 206.253 190.116 186.595L168.289 162.634C147.026 139.305 136.395 119.812 136.395 104.157C136.395 82.435 146.709 63.1452 167.335 46.2871C187.962 29.4291 211.542 21 238.077 21C252.624 21 268.932 24.0353 287 30.106L276.45 83.0704H261.101L261.834 78.994C262.172 77.3393 262.332 75.6532 262.311 73.9644C262.311 52.3945 248.44 41.6095 220.696 41.6095C189.603 41.6095 174.058 54.0734 174.063 79.0013C174.063 91.6266 183.334 108.402 201.877 129.326L221.533 151.146C242.947 175.267 253.659 195.077 253.668 210.577C253.668 231.985 242.316 251.077 219.61 267.852C196.905 284.627 171.084 293.01 142.147 293C121.844 293 99.4613 288.288 75 278.864Z" fill="white"/>
<defs>
<linearGradient id="paint0_linear_135_163" x1="181" y1="0" x2="181" y2="313.43" gradientUnits="userSpaceOnUse">
<stop stop-color="#FFF98D"/>
<stop offset="1" stop-color="#BEDA64"/>
</linearGradient>
</defs>
</svg>
